# xmcd
#
# Track frame offsets: 
#        150
#        13188
#        27128
#        41229
#        54799
#        67528
#        82326
#        95886
#        109009
#        122805
#        136683
#        148027
#        162182
#        176464
#        191373
#        205139
#        221751
#        236275
#        248833
#        261351
#        273140
#        287575
#        302192
#        316300
#        331677
#
# Disc length: 4619 seconds
#
# Revision: 2
# Processed by: cddbd v1.5.2PL0 Copyright (c) Steve Scherf et al.
# Submitted via: ExactAudioCopyFreeDBPlugin 1.0
#
DISCID=5f120919
DTITLE=NOT NOW - Mississippi Blues (disc-2)
DYEAR=2012
DGENRE=Blues
TTITLE0=Freight Train Blues - Mississippi Fred McDowell (1959 Como MS,
TTITLE0=Alan Lomax)
TTITLE1=Blue Harvest Blues - Mississippi John Hurt (1928 NYC, OKeh 869
TTITLE1=2)
TTITLE2=Jumpin' And Shoutin' Blues - Garfield Akers (1930 Memphis, Voc
TTITLE2=alion 1481)
TTITLE3=That Won't Do - Arthur Petties (1930)
TTITLE4=Baltimore Blues - Charlie McCoy (1934)
TTITLE5=She's Young And Wild - Willie '61' Blackwell (1941 Chicago, Bl
TTITLE5=uebird B8810)
TTITLE6=Going To Move To Alabama - Charley Patton (1929 Grafton, Param
TTITLE6=ount 13014)
TTITLE7=Down On My Bended Knee - King Solomon Hill (1932 Grafton, Para
TTITLE7=mount 13116)
TTITLE8=Sitting On Top Of The World - Mississippi Sheiks (1930 Shrevep
TTITLE8=ort, OKeh 8784)
TTITLE9=Don't Cry - Freddie Spruell (1935 Chicago, Bluebird B6025)
TTITLE10=The Jail House Blues - Sam Collins (1927 Richmond IN, Gennett
TTITLE10=6167)
TTITLE11=Skinny Leg Blues - Geechie Wiley (1930 Grafton, Paramount 129
TTITLE11=51)
TTITLE12=Twelve Pound Daddy - Pearl Dickson (1927)
TTITLE13=You Scolded And Drove Me - Mississippi Bracey (1930)
TTITLE14=Avalon Blues - Mississippi John Hurt (1928 NYC, OKeh 8759)
TTITLE15=Shake 'Em On Down - Mississippi Fred McDowelll (1959 Como MS,
TTITLE15=Alan Lomax)
TTITLE16=Down South Blues - Arthur Petties (1928)
TTITLE17=Happy Home Blues - Mississippi Matilda (1936)
TTITLE18=Look Who's Coming Down The Road - Joe McCoy (1930)
TTITLE19=Preaching On The Old Camp Ground - Mississippi John Hurt (192
TTITLE19=8 Memphis, OKeh unissued)
TTITLE20=Whoopee Blues - King Solomon Hill (1932 Grafton, Paramount 13
TTITLE20=116)
TTITLE21=Cherry Ball - Mississippi Bracey (1930)
TTITLE22=Machine Gun Blues - Willie '61' Blackwell (1941 Chicago, Blue
TTITLE22=bird B8876)
TTITLE23=Low Down Mississippi Bottom Man - Freddie Spruell (1928 Chica
TTITLE23=go, Paramount 12665)
TTITLE24=Fare Thee Well Blues - Joe Callicott (1930 Memphis, Brunswick
TTITLE24=7166)
EXTD=
EXTT0=
EXTT1=
EXTT2=
EXTT3=
EXTT4=
EXTT5=
EXTT6=
EXTT7=
EXTT8=
EXTT9=
EXTT10=
EXTT11=
EXTT12=
EXTT13=
EXTT14=
EXTT15=
EXTT16=
EXTT17=
EXTT18=
EXTT19=
EXTT20=
EXTT21=
EXTT22=
EXTT23=
EXTT24=
PLAYORDER=
